<?xml version="1.0" standalone="no"?>
<!DOCTYPE svg PUBLIC "-//W3C//DTD SVG 20010904//EN"
 "http://www.w3.org/TR/2001/REC-SVG-20010904/DTD/svg10.dtd">
<svg version="1.0" xmlns="http://www.w3.org/2000/svg"
 width="1005.000000pt" height="1005.000000pt" viewBox="0 0 1005.000000 1005.000000"
 preserveAspectRatio="xMidYMid meet">
<metadata>
Created by potrace 1.11, written by Peter Selinger 2001-2013
</metadata>
<g transform="translate(0.000000,1005.000000) scale(0.100000,-0.100000)"
fill="#000000" stroke="none">
<path d="M4748 10045 c-2 -2 -41 -6 -88 -9 -82 -6 -136 -11 -210 -22 -38 -5
-78 -10 -155 -19 -120 -13 -407 -74 -600 -127 -460 -125 -939 -334 -1316 -572
-235 -149 -416 -281 -624 -456 -104 -88 -426 -406 -505 -500 -30 -36 -63 -74
-73 -85 -66 -71 -299 -387 -377 -510 -189 -301 -360 -637 -466 -921 -69 -185
-149 -437 -170 -531 -2 -12 -9 -35 -15 -50 -6 -16 -10 -29 -9 -31 2 -3 -8 -54
-30 -147 -10 -44 -21 -96 -24 -115 -3 -19 -12 -75 -20 -125 -19 -113 -23 -145
-31 -220 -3 -33 -8 -70 -10 -82 -19 -114 -26 -665 -12 -853 12 -149 17 -203
22 -225 2 -11 7 -47 10 -80 4 -33 13 -98 21 -145 8 -47 17 -98 20 -115 9 -54
71 -328 94 -410 56 -209 156 -487 251 -704 51 -114 186 -383 227 -451 12 -19
31 -53 43 -75 71 -133 381 -567 481 -675 12 -14 52 -59 87 -100 73 -86 344
-355 447 -446 167 -146 379 -306 554 -418 41 -27 86 -56 100 -66 76 -51 330
-191 472 -260 370 -178 838 -334 1218 -405 147 -28 298 -50 480 -70 121 -13
276 -19 490 -19 247 0 436 10 570 29 131 18 249 35 265 39 11 2 40 7 65 11 52
9 52 8 150 30 41 9 86 19 100 21 61 12 340 91 430 122 8 3 20 6 25 8 32 8 192
68 200 75 5 5 15 9 22 9 22 0 293 119 443 196 378 192 786 471 1085 744 111
101 347 342 436 445 489 565 848 1235 1045 1949 20 72 37 137 39 145 2 9 15
68 29 131 23 104 32 154 41 217 2 11 6 29 9 40 4 15 26 176 40 308 28 242 28
741 0 1000 -8 78 -14 127 -19 160 -3 17 -7 48 -10 70 -3 22 -10 65 -15 95 -5
30 -12 69 -15 87 -67 402 -243 928 -448 1338 -200 401 -442 755 -767 1120 -85
96 -336 341 -440 431 -519 446 -1083 763 -1749 981 -102 33 -259 78 -311 89
-14 3 -50 11 -81 19 -73 19 -340 72 -404 80 -27 3 -68 8 -90 11 -22 2 -56 6
-75 9 -19 2 -66 7 -105 11 -38 3 -81 8 -95 11 -27 5 -647 13 -652 8z"/>
</g>
</svg>
